<?xml version="1.0" encoding="UTF-8" standalone="no"?>
<svg
   sodipodi:docname="logo_small1.svg"
   inkscape:version="1.3.2 (091e20ef0f, 2023-11-25, custom)"
   id="svg8"
   version="1.1"
   viewBox="0 0 68.791665 34.395834"
   height="130"
   width="260"
   xmlns:inkscape="http://www.inkscape.org/namespaces/inkscape"
   xmlns:sodipodi="http://sodipodi.sourceforge.net/DTD/sodipodi-0.dtd"
   xmlns="http://www.w3.org/2000/svg"
   xmlns:svg="http://www.w3.org/2000/svg"
   xmlns:rdf="http://www.w3.org/1999/02/22-rdf-syntax-ns#"
   xmlns:cc="http://creativecommons.org/ns#"
   xmlns:dc="http://purl.org/dc/elements/1.1/">
  <defs
     id="defs2" />
  <sodipodi:namedview
     inkscape:window-maximized="1"
     inkscape:window-y="198"
     inkscape:window-x="0"
     inkscape:window-height="1221"
     inkscape:window-width="2556"
     units="px"
     showgrid="false"
     inkscape:document-rotation="0"
     inkscape:current-layer="layer1"
     inkscape:document-units="px"
     inkscape:cy="81.785714"
     inkscape:cx="190.17857"
     inkscape:zoom="2.8"
     inkscape:pageshadow="2"
     inkscape:pageopacity="0.0"
     borderopacity="1.0"
     bordercolor="#666666"
     pagecolor="#ffffff"
     id="base"
     inkscape:showpageshadow="2"
     inkscape:pagecheckerboard="0"
     inkscape:deskcolor="#d1d1d1" />
  <metadata
     id="metadata5">
    <rdf:RDF>
      <cc:Work
         rdf:about="">
        <dc:format>image/svg+xml</dc:format>
        <dc:type
           rdf:resource="http://purl.org/dc/dcmitype/StillImage" />
        <dc:title />
      </cc:Work>
    </rdf:RDF>
  </metadata>
  <g
     id="layer1"
     inkscape:groupmode="layer"
     inkscape:label="Ebene 1">
    <path
       d="m 3.1362076,13.516303 h 0.136356 q 1.9089848,0.323846 1.9089848,1.908985 v 0.06818 L 4.9088363,15.766178 H 4.7043022 q -0.2045341,0 -0.4090682,-0.954493 -0.5045174,-0.545424 -1.1590264,-0.545424 -0.9408568,0 -1.3635606,1.295383 l -0.1363561,1.227204 v 0.818137 q 0,2.219194 1.2953826,2.590765 H 3.1362076 Q 4.0907,19.976171 4.0907,19.379613 L 4.0225219,18.697833 4.0907,18.288765 q 0,-0.545424 -0.6136023,-0.545424 l -0.4090682,0.06818 q -0.4261126,-0.136356 -0.4772462,-0.34089 0,-0.392024 0.4772462,-0.545425 l 0.3408902,0.06818 h 1.7044507 q 0.3408901,0.173854 0.3408901,0.545425 v 2.727121 q 0,0.364752 -0.2727121,0.477246 H 5.1133704 L 4.5679461,20.53864 Q 3.8009433,20.87953 3.2043856,20.87953 H 2.7953174 q -1.6976329,0 -2.45440898,-1.704451 -0.27271211,-0.896541 -0.340890140135,-2.045341 0,-1.52037 0.954492390135,-2.795299 1.12493743,-0.818136 2.18169693,-0.818136 z m 4.9974492,1.704451 q 1.8408068,0 1.8408068,2.590765 -0.139765,0.409068 -0.5454242,0.409068 H 7.5200546 q -0.1602184,0 -0.2045341,0.477246 0.2386231,1.295383 0.8863144,1.295383 h 0.136356 q 0.8181364,-0.18749 0.8181364,-0.749959 l 0.2727121,-0.34089 h 0.2727121 q 0.2727121,0.139765 0.2727121,0.34089 0,1.568095 -1.6362727,1.568095 l -0.2045341,0.06818 q -1.5067344,0 -2.1816969,-1.704451 -0.136356,-0.306801 -0.136356,-0.886314 v -0.272712 q 0,-2.011252 1.8408067,-2.795299 z m -0.204534,0.749958 q -0.3545258,0.272712 -0.6136023,1.090848 0.1329472,0.31021 0.2727121,0.340891 h 0.7499583 q 0.4090682,0 0.4090682,-0.340891 -0.1124938,-1.090848 -0.8181363,-1.090848 z m 5.4133352,-0.545424 q 1.295383,0.170445 1.295383,1.227204 v 3.681614 q 0,0.545424 -0.545425,0.545424 H 13.61517 q -0.34089,-0.173854 -0.34089,-0.545424 v -3.204368 q 0,-0.477246 -0.477246,-0.477246 h -0.136356 q -0.954493,0.531789 -0.954493,1.704451 v 2.181697 l -0.34089,0.34089 h -0.477246 q -0.545424,0 -0.545424,-0.749958 v -0.136356 h 0.06818 l -0.06818,-0.477247 v -3.408901 q 0,-0.613602 0.749958,-0.613602 0.238623,0 0.749958,0.477246 h 0.272713 q 0.661326,-0.545424 1.227204,-0.545424 z m 3.954326,-0.204534 q 1.840807,0 1.840807,2.590765 -0.139765,0.409068 -0.545424,0.409068 h -1.908985 q -0.160218,0 -0.204534,0.477246 0.238623,1.295383 0.886314,1.295383 h 0.136356 q 0.818137,-0.18749 0.818137,-0.749959 l 0.272712,-0.34089 h 0.272712 q 0.272712,0.139765 0.272712,0.34089 0,1.568095 -1.636273,1.568095 l -0.204534,0.06818 q -1.506734,0 -2.181697,-1.704451 -0.136356,-0.306801 -0.136356,-0.886314 v -0.272712 q 0,-2.011252 1.840807,-2.795299 z m -0.204534,0.749958 q -0.354526,0.272712 -0.613602,1.090848 0.132947,0.31021 0.272712,0.340891 h 0.749958 q 0.409069,0 0.409069,-0.340891 -0.112494,-1.090848 -0.818137,-1.090848 z m 4.840641,-0.613602 q 0.818136,0.146582 0.818136,0.818136 0,1.431739 -0.68178,1.431739 -0.545424,0 -0.545424,-0.954493 l -0.204534,-0.06818 q -0.613603,0.405659 -0.613603,2.522587 v 0.545424 l 0.06818,0.613603 q -0.0784,0.545424 -0.613602,0.545424 H 19.88755 q -0.456793,0 -0.613602,-0.545424 l 0.06818,-0.34089 V 16.37978 l -0.06818,-0.409068 q 0,-0.439748 0.613602,-0.545424 h 0.136356 q 0.361344,0 0.68178,0.545424 l 0.06818,0.06818 h 0.136357 q 0.739731,-0.68178 1.02267,-0.68178 z m 3.136188,-0.136356 h 0.204534 q 1.452192,0 1.70445,1.090848 v 2.999833 q 0,0.415886 0.749959,0.818137 l 0.06818,0.204534 q -0.160219,0.477246 -0.818137,0.477246 h -0.409068 q -0.269303,0 -0.886314,-0.409068 h -0.204534 q -0.422704,0.385206 -1.022671,0.477246 -1.568094,-0.252259 -1.568094,-1.704451 0,-1.36356 2.386231,-1.977163 0.409068,-0.34089 0.409068,-0.613602 0,-0.40225 -1.022671,-0.545424 -0.68178,0.149992 -0.68178,0.954492 l -0.34089,0.06818 q -0.409068,0 -0.409068,-0.477246 0,-1.220387 1.840807,-1.36356 z m -0.818137,3.817969 q 0,0.460202 0.477246,0.818137 h 0.136357 q 0.749958,-0.463611 0.749958,-1.159027 v -0.477246 q 0,-0.170445 -0.272712,-0.204534 -0.920404,0.426112 -1.090849,1.02267 z m 4.59861,-5.454242 h 0.136356 q 0.477246,0 0.477246,0.477246 v 6.272379 q 0,0.545424 -0.613602,0.545424 -0.511335,0 -0.681781,-0.34089 v -6.613269 q 0.153401,-0.34089 0.681781,-0.34089 z m 4.700872,0.06818 h 0.477247 q 0.729505,0 1.227204,2.658943 0.259077,0.504517 0.409068,1.295383 h 0.272712 q 0.18749,-0.149992 1.159027,-3.545258 l 0.409068,-0.409068 h 0.68178 q 0.579514,0 0.749959,0.477246 l -0.06818,0.818137 v 4.158859 l 0.06818,1.295383 q 0,0.477246 -0.681781,0.477246 h -0.272712 q -0.545424,0 -0.545424,-0.545424 v -2.318053 l 0.06818,-0.409068 q -0.08863,-0.409069 -0.204534,-0.409069 h -0.272712 l -1.090849,3.545258 -0.204534,0.136356 h -0.204534 q -0.702233,0 -0.886314,-1.908985 -0.102267,0 -0.409068,-1.636272 l -0.204534,-0.136357 h -0.06818 q -0.136356,0 -0.136356,0.340891 h -0.06818 l 0.06818,0.477246 v 2.522587 l -0.340891,0.34089 H 33.34589 L 33.005,20.53864 v -6.340557 q 0,-0.545424 0.545424,-0.545424 z m 8.017739,1.568095 q 1.840807,0 1.840807,2.590765 -0.139765,0.409068 -0.545425,0.409068 h -1.908984 q -0.160219,0 -0.204535,0.477246 0.238624,1.295383 0.886315,1.295383 h 0.136356 q 0.818136,-0.18749 0.818136,-0.749959 l 0.272712,-0.34089 h 0.272712 q 0.272713,0.139765 0.272713,0.34089 0,1.568095 -1.636273,1.568095 l -0.204534,0.06818 q -1.506735,0 -2.181697,-1.704451 -0.136356,-0.306801 -0.136356,-0.886314 v -0.272712 q 0,-2.011252 1.840807,-2.795299 z m -0.204534,0.749958 q -0.354526,0.272712 -0.613603,1.090848 0.132948,0.31021 0.272713,0.340891 h 0.749958 q 0.409068,0 0.409068,-0.340891 -0.112494,-1.090848 -0.818136,-1.090848 z m 5.072443,-0.749958 q 1.08744,0 1.431739,1.499916 -0.09204,0.27953 -0.34089,0.409068 h -0.204534 q -0.180672,0 -0.477246,-0.954492 L 46.436072,16.03889 h -0.136356 q -0.876087,0 -1.090848,2.113519 0,1.615819 1.02267,1.908985 0.954493,0 0.954493,-1.363561 0.24885,-0.204534 0.477246,-0.204534 0.259076,0.06136 0.409068,0.477246 0,1.660135 -1.977163,1.908985 -2.249875,-0.24885 -2.249875,-2.249875 l -0.06818,-0.477246 q 0,-2.226013 1.908985,-2.931655 z m 2.658946,-1.636273 h 0.34089 l 0.272712,0.272712 v 1.568095 q 0,0.501108 0.204534,0.545424 h 0.204534 q 0.640874,-0.613602 0.954493,-0.613602 h 0.409068 q 1.159026,0.190898 1.159026,1.159026 v 3.545258 l 0.06818,0.272712 q 0,0.456793 -0.749958,0.545424 -0.467019,0 -0.68178,-0.477246 l 0.06818,-0.477246 v -2.727122 q 0,-0.37157 -0.34089,-0.545424 h -0.06818 Q 49.70862,17.03088 49.70862,18.493299 v 2.045341 q -0.173854,0.34089 -0.545424,0.34089 h -0.204534 q -0.37157,0 -0.545424,-0.34089 v -6.613269 q 0.1534,-0.34089 0.68178,-0.34089 z m 5.931489,1.636273 h 0.204534 q 1.452192,0 1.70445,1.090848 v 2.999833 q 0,0.415886 0.749959,0.818137 l 0.06818,0.204534 q -0.160219,0.477246 -0.818137,0.477246 h -0.409068 q -0.269303,0 -0.886314,-0.409068 h -0.204534 q -0.422704,0.385206 -1.022671,0.477246 -1.568094,-0.252259 -1.568094,-1.704451 0,-1.36356 2.386231,-1.977163 0.409068,-0.34089 0.409068,-0.613602 0,-0.40225 -1.022671,-0.545424 -0.68178,0.149992 -0.68178,0.954492 l -0.34089,0.06818 q -0.409068,0 -0.409068,-0.477246 0,-1.220387 1.840807,-1.36356 z m -0.818137,3.817969 q 0,0.460202 0.477246,0.818137 h 0.136357 q 0.749958,-0.463611 0.749958,-1.159027 v -0.477246 q 0,-0.170445 -0.272712,-0.204534 -0.920404,0.426112 -1.090849,1.02267 z m 6.916661,-3.613435 q 1.295382,0.170445 1.295382,1.227204 v 3.681614 q 0,0.545424 -0.545424,0.545424 h -0.477246 q -0.34089,-0.173854 -0.34089,-0.545424 v -3.204368 q 0,-0.477246 -0.477246,-0.477246 h -0.136356 q -0.954493,0.531789 -0.954493,1.704451 v 2.181697 l -0.34089,0.34089 h -0.477246 q -0.545424,0 -0.545424,-0.749958 v -0.136356 h 0.06818 l -0.06818,-0.477247 v -3.408901 q 0,-0.613602 0.749958,-0.613602 0.238623,0 0.749958,0.477246 h 0.272712 q 0.661327,-0.545424 1.227205,-0.545424 z m 2.386229,-1.840807 q 0.613603,0.211352 0.613603,0.68178 0,0.460202 -0.681781,0.613603 -0.446566,0 -0.68178,-0.409069 v -0.477246 q 0,-0.252259 0.749958,-0.409068 z m 0.204535,1.772629 q 0.409068,0.139765 0.409068,0.545424 v 4.295216 q 0,0.613602 -0.681781,0.613602 h -0.136356 q -0.37157,0 -0.545424,-0.34089 v -4.567928 q 0,-0.545424 0.954493,-0.545424 z m 3.439581,-0.136356 q 1.087439,0 1.431738,1.499916 -0.09204,0.27953 -0.34089,0.409068 H 68.04169 q -0.180672,0 -0.477246,-0.954492 L 67.155376,16.03889 h -0.136357 q -0.876087,0 -1.090848,2.113519 0,1.615819 1.02267,1.908985 0.954493,0 0.954493,-1.363561 0.24885,-0.204534 0.477246,-0.204534 0.259077,0.06136 0.409068,0.477246 0,1.660135 -1.977163,1.908985 -2.249875,-0.24885 -2.249875,-2.249875 l -0.06818,-0.477246 q 0,-2.226013 1.908985,-2.931655 z"
       id="text853"
       style="font-size:6.98143px;line-height:13.0902px;font-family:Clingy;-inkscape-font-specification:'Clingy, Normal';letter-spacing:0px;word-spacing:0px;fill:#aa0000;stroke-width:0.52361px"
       aria-label="General Mechanic" />
  </g>
</svg>
