<?xml version="1.0" encoding="UTF-8" standalone="no"?>
<svg
   sodipodi:docname="logo_small4.svg"
   inkscape:version="1.3.2 (091e20ef0f, 2023-11-25, custom)"
   id="svg8"
   version="1.1"
   viewBox="0 0 68.791665 34.395834"
   height="130"
   width="260"
   xmlns:inkscape="http://www.inkscape.org/namespaces/inkscape"
   xmlns:sodipodi="http://sodipodi.sourceforge.net/DTD/sodipodi-0.dtd"
   xmlns="http://www.w3.org/2000/svg"
   xmlns:svg="http://www.w3.org/2000/svg"
   xmlns:rdf="http://www.w3.org/1999/02/22-rdf-syntax-ns#"
   xmlns:cc="http://creativecommons.org/ns#"
   xmlns:dc="http://purl.org/dc/elements/1.1/">
  <defs
     id="defs2">
    <inkscape:perspective
       id="perspective873"
       inkscape:persp3d-origin="19.490965 : 2.8237787 : 1"
       inkscape:vp_z="53.886798 : 8.5564177 : 1"
       inkscape:vp_y="0 : 1000 : 0"
       inkscape:vp_x="-14.904867 : 8.5564177 : 1"
       sodipodi:type="inkscape:persp3d" />
  </defs>
  <sodipodi:namedview
     inkscape:window-maximized="1"
     inkscape:window-y="198"
     inkscape:window-x="0"
     inkscape:window-height="1221"
     inkscape:window-width="2556"
     units="px"
     showgrid="false"
     inkscape:document-rotation="0"
     inkscape:current-layer="layer1"
     inkscape:document-units="px"
     inkscape:cy="68.942911"
     inkscape:cx="160.74052"
     inkscape:zoom="3.959798"
     inkscape:pageshadow="2"
     inkscape:pageopacity="0.0"
     borderopacity="1.0"
     bordercolor="#666666"
     pagecolor="#ffffff"
     id="base"
     inkscape:showpageshadow="2"
     inkscape:pagecheckerboard="0"
     inkscape:deskcolor="#d1d1d1" />
  <metadata
     id="metadata5">
    <rdf:RDF>
      <cc:Work
         rdf:about="">
        <dc:format>image/svg+xml</dc:format>
        <dc:type
           rdf:resource="http://purl.org/dc/dcmitype/StillImage" />
        <dc:title />
      </cc:Work>
    </rdf:RDF>
  </metadata>
  <g
     id="layer1"
     inkscape:groupmode="layer"
     inkscape:label="Ebene 1">
    <rect
       y="0"
       x="0"
       height="34.395832"
       width="68.791664"
       id="rect1085"
       style="color:#000000;overflow:visible;opacity:1;fill:#000000;fill-opacity:1;stroke-width:2.9537;stroke-linecap:round;stroke-linejoin:round;stroke-dasharray:5.90739, 2.95369999999999999" />
    <g
       id="text853"
       style="font-size:13.8052px;line-height:9.41917px;font-family:Creepygirl;-inkscape-font-specification:'Creepygirl, Normal';letter-spacing:0px;word-spacing:0px;fill:#ffffff;stroke-width:1.0354px"
       transform="rotate(-29.493105)"
       aria-label="Black&#10;Metal&#10;Tech">
      <path
         style="text-align:center;text-anchor:middle"
         d="m 18.400267,22.104037 q -0.607429,0.538403 -2.899092,2.112196 -1.932728,1.325299 -3.050949,2.512546 -0.427962,0.469377 -0.510793,1.477156 -0.0138,0.110442 -0.04141,1.960339 -0.01381,-0.124247 -0.331325,-1.794676 -0.220883,-1.145832 -0.220883,-1.38052 0,-0.09664 0.331324,-0.289909 0.400351,-0.220884 0.593624,-0.524598 0.31752,-0.483182 0.31752,-1.283884 0,-0.621234 -0.09664,-2.139805 -0.138052,-2.04317 -0.331325,-3.147586 -1.297688,0.276104 -1.297688,1.40813 0,0.262299 0.08283,0.855923 0.09664,0.593623 0.09664,0.869727 0,0.276104 -0.05522,0.483182 0,-0.220883 -0.179467,-0.911143 -0.179468,-0.69026 -0.179468,-0.842117 l -0.193273,-1.974144 q 1.339105,-0.303714 3.74121,-0.648844 2.126,-0.303714 2.526351,-0.303714 0.455572,0 0.842117,0.193272 -0.06903,0.441767 -1.076805,1.132027 -1.518572,1.03539 -1.546183,1.049195 0.234689,0.04142 0.607429,0.04142 0.151857,0 0.469377,-0.01381 0.331325,0 0.496987,0 1.325299,0 1.905118,0.469377 0.05522,0.496987 0,0.69026 z m -2.236443,-2.733429 q -0.69026,-0.09664 -1.325299,-0.09664 -1.063,0 -1.987949,0.262299 l -0.06903,1.780871 q 0.828312,-0.276104 1.863702,-0.938754 0.759286,-0.496987 1.518572,-1.007779 z m 1.366715,2.139806 q -0.234688,0 -0.869728,-0.08283 -0.621234,-0.09664 -0.814506,-0.09664 -0.69026,0 -1.449546,0.165662 -1.00778,0.220884 -1.463351,0.648845 v 3.202806 q 1.366714,-0.855922 2.733429,-1.711845 1.794676,-1.242468 1.863702,-2.126 z m 2.69202,-4.169171 q -0.248493,1.090611 -0.427961,3.10617 -0.110441,1.629014 -0.234688,3.258027 -0.02761,0.414156 0.08283,1.891313 0.124247,1.670429 0.124247,2.41591 0,1.214857 -0.248494,1.670429 -0.05522,-0.980169 -0.110441,-1.974144 -0.165663,-1.242468 -0.842118,-1.946533 0.731676,-1.490962 0.731676,-3.658378 0,-0.510792 -0.05522,-1.629013 -0.04142,-1.049196 -0.04142,-1.629014 0,-0.207078 0.37274,-0.704065 0.331325,-0.400351 0.648844,-0.800702 z m 4.900836,8.835328 q -0.69026,2.622988 -0.773091,3.658378 -0.04142,-0.262299 -0.04142,-0.621234 0,-0.248494 0.02761,-0.800702 0.02761,-0.552208 0.02761,-0.842117 0,-1.394325 -0.593623,-2.291663 -0.151858,0.09664 -0.579819,0.635039 -0.427961,0.538403 -0.731675,0.786897 -0.496987,0.386545 -0.993975,0.358935 -0.138052,0 -0.303714,-0.207078 -0.151857,-0.207078 -0.151857,-0.427961 0,-0.993975 2.567767,-1.946534 -0.06903,-0.427961 -0.303714,-1.546182 -1.049196,0.04142 -1.753261,0.786896 -0.704065,0.731676 -0.731675,1.711845 0,-1.242468 -0.193273,-2.112195 1.615208,-0.09664 2.926702,-1.145832 -0.04142,3.064754 1.601403,4.003508 z M 23.259693,25.08596 q -0.37274,-0.05522 -1.173442,0.469377 -0.800701,0.524598 -0.800701,0.938754 0,0.331324 0.207078,0.358935 0.566013,-0.400351 1.132026,-0.800702 0.704065,-0.552208 0.635039,-0.966364 z m 4.887029,-0.02761 q -0.02761,1.352909 -0.06903,2.540157 -0.05522,1.021584 -0.05522,1.063 -0.124247,-0.855922 -0.386546,-2.609183 -1.670429,1.435741 -2.250247,1.325299 0,-0.02761 -0.09664,-0.276104 -0.08283,-0.262298 -0.08283,-0.455571 0,-0.552208 0.717871,-3.741209 0.207078,-0.331325 0.869727,-0.469377 l 0.02761,2.056975 q -0.08283,-0.06903 -0.234689,-0.455572 -0.138052,-0.386546 -0.262299,-0.552208 -0.676454,1.905118 -0.676454,2.719624 0,0.09664 -0.02761,0.248494 -0.01381,0.110442 0,0.193273 0.02761,0.110441 0.124247,0.303714 0.455572,-0.276104 1.201052,-0.897338 0.607429,-0.496987 1.201053,-0.993974 z m 3.354665,4.390053 q 0,0.579819 -0.317519,1.228663 0.01381,-0.883533 -0.34513,-2.636793 -0.151858,-0.427961 -0.414156,-1.339104 0.358935,-0.34513 0.358935,-0.966364 0,-0.579819 -0.303715,-1.228663 -0.289909,-0.648845 -0.74548,-1.104416 -0.110442,1.698039 -0.234689,3.409884 -0.138052,2.084585 -0.138052,3.492716 -0.151857,-0.717871 -0.303714,-1.421936 -0.234689,-1.145831 -0.635039,-1.72565 0.759286,-0.704065 0.883532,-1.490961 0.01381,-0.704066 0.02761,-1.394326 l 0.179467,-5.839599 q -0.207078,0.31752 -0.40035,1.40813 -0.124247,0.800702 -0.248494,1.587598 -0.09664,-0.165662 -0.179468,-1.007779 -0.08283,-0.731676 -0.08283,-1.063001 0,-0.179467 0.510793,-0.897338 0.704065,-0.980169 0.800701,-1.132026 0,0.276104 -0.110441,0.966364 -0.09664,0.69026 -0.09664,0.800702 l -0.05522,3.713598 q 0.34513,-0.04142 0.66265,-0.455571 0.193273,-0.276104 0.386546,-0.552208 0.427961,0.427961 0.427961,0.786896 v 0.911143 q -0.138052,0.151857 -0.31752,0.151857 -0.06903,0 -0.220883,-0.02761 -0.138052,-0.04142 -0.193273,-0.04142 -0.06903,0 -0.124247,0.02761 0.621234,1.03539 0.814507,2.07078 0.151857,0.786896 0.289909,2.208832 0.124247,1.242468 0.124247,1.559987 z m -0.759286,-6.184729 v -0.842117 q -0.579818,0.552208 -0.579818,0.71787 0.06903,0 0.289909,0.06903 0.234688,0.05522 0.289909,0.05522 z"
         id="path1" />
      <path
         style="text-align:center;text-anchor:middle"
         d="m 16.99904,26.415284 q -0.842117,1.38052 -1.104416,2.484936 -0.220883,0.855922 -0.220883,2.402104 0,2.70582 0.648844,4.624742 0.04142,0.138052 0.331325,0.524598 0.248493,0.358935 0.248493,0.469377 0,0.124246 -0.193273,1.118221 -0.207077,1.118221 -0.262298,1.546182 -0.02761,-1.242468 -0.607429,-3.768819 -0.566013,-2.457326 -0.566013,-3.644573 0,-0.207078 0.179467,-1.670429 0.193273,-1.615209 0.358936,-2.484936 -0.897338,0.786896 -1.546183,2.139806 -0.386545,0.800701 -0.897338,2.360689 -0.193273,-2.015559 -0.400351,-3.161391 -0.110441,0.220883 -1.173442,2.692014 -0.69026,1.615209 -1.518572,2.802456 -0.234688,0.34513 -0.3175191,1.421935 -0.082831,1.35291 -0.1656624,1.670429 0,-0.579818 -0.082831,-1.518572 -0.1104416,-1.394325 -0.1518572,-2.043169 0.2899092,0 0.414156,-0.02761 1.2148579,-1.408131 1.8913119,-3.202807 0.28991,-0.786896 0.883533,-3.092365 0.165663,-0.165662 0.552208,-0.538402 0,2.07078 0.110442,3.47891 0.05522,0 0.08283,0.08283 0.04142,0.06903 0.08283,0.110442 0.800702,-1.808481 1.325299,-2.73343 0.165663,-0.303714 0.621234,-0.855922 0.469377,-0.566013 0.607429,-0.773091 0.138052,-0.220883 0.869728,-0.414156 z m 4.707565,11.085575 q -0.124247,0.538403 -0.524598,1.559988 0.165663,-0.842118 0.262299,-1.173442 l 0.06903,-1.049196 -0.06903,-0.579818 q -0.02761,-0.248494 -0.262299,-0.262299 -0.05522,0 -0.220883,0.01381 -0.151857,0.01381 -0.262299,0.01381 -0.358935,0 -2.07078,0.869727 0,-2.236442 0.165663,-3.47891 -0.06903,0.08283 -0.06903,0.05522 v 0.0138 q 0,-0.06903 -0.05522,-0.0138 0.02761,0 0.01381,-0.05522 -0.04142,0.0138 -0.138052,0 -0.869727,-0.09664 -1.159637,1.463351 -0.06903,0.427961 -0.124246,1.104416 l -0.01381,0.414156 q -0.0138,0.179468 -0.02761,0.234688 l 0.124247,0.01381 -0.220883,-3.409885 q 0.276104,-0.09664 1.670429,-0.220883 0.179467,-0.524597 0.289909,-0.745481 0.165662,-0.414156 0.37274,-0.71787 0.08283,-0.02761 0.165663,-0.02761 0.566013,0 1.076805,1.684234 -1.063,0.02761 -1.490961,0.455572 -0.138052,0.37274 -0.151857,0.980169 -0.01381,0.510792 -0.01381,1.021584 -0.02761,0.372741 -0.138052,0.800702 0.648845,-0.331325 1.490962,-0.897338 0.414156,-0.289909 1.214858,-0.814507 0.193272,0.524598 0.193272,1.477157 0,0.828312 -0.09664,1.270078 z m -1.69804,-5.149339 q -0.165662,-0.303715 -0.469376,-0.455572 -0.276104,0.855922 -0.276104,1.159637 l 1.049195,-0.08283 Q 20.215643,32.75187 20.008565,32.35152 Z m 6.377993,-1.849897 q 0,0.05522 -0.06903,0.317519 -0.05522,0.248494 -0.05522,0.31752 -1.463352,0.248494 -2.139806,0.648844 v 4.541911 q 0.0138,0.648844 0.0138,1.311494 0.02761,1.187247 0.165662,1.946533 -0.207078,-0.207078 -0.510792,-1.311494 -0.31752,-1.159637 -0.731676,-1.698039 0.414156,-0.372741 0.579819,-1.118222 0.110441,-0.648844 0.220883,-1.297688 l -0.09664,-2.484936 q -1.063,0.510792 -1.877507,1.352909 v -1.187247 q 0.966364,-0.02761 1.38052,-0.165662 0.731676,-0.248494 0.731676,-0.924949 0,-0.165662 -0.276104,-1.366714 -0.262299,-1.214858 -0.262299,-1.38052 0,-0.179468 0.414156,-0.66265 0.566013,-0.662649 0.621234,-0.731675 -0.165662,0.621234 -0.234688,1.629013 -0.09664,1.435741 -0.124247,1.642819 l 0.110441,1.352909 q 0.31752,-0.01381 0.966364,-0.276104 0.993975,-0.40035 1.173442,-0.455571 z m 4.155377,5.094118 q -0.69026,2.622988 -0.773091,3.658378 -0.04142,-0.262298 -0.04142,-0.621234 0,-0.248493 0.02761,-0.800701 0.02761,-0.552208 0.02761,-0.842117 0,-1.394326 -0.593623,-2.291663 -0.151857,0.09664 -0.579819,0.635039 -0.427961,0.538402 -0.731675,0.786896 -0.496987,0.386546 -0.993975,0.358935 -0.138052,0 -0.303714,-0.207078 -0.151857,-0.207078 -0.151857,-0.427961 0,-0.993974 2.567767,-1.946533 -0.06903,-0.427961 -0.303714,-1.546182 -1.049196,0.04142 -1.753261,0.786896 -0.704065,0.731676 -0.731675,1.711845 0,-1.242468 -0.193273,-2.112196 1.615208,-0.09664 2.926702,-1.145831 -0.04142,3.064754 1.601403,4.003507 z m -1.863702,-1.09061 q -0.37274,-0.05522 -1.173442,0.469376 -0.800701,0.524598 -0.800701,0.938754 0,0.331325 0.207078,0.358935 0.566013,-0.400351 1.132026,-0.800701 0.704065,-0.552208 0.635039,-0.966364 z m 3.713587,-7.744717 q -0.248494,1.09061 -0.427961,3.10617 -0.110442,1.629013 -0.234689,3.258027 -0.02761,0.414156 0.08283,1.891312 0.124246,1.670429 0.124246,2.41591 0,1.214858 -0.248493,1.670429 -0.05522,-0.980169 -0.110442,-1.974143 -0.165662,-1.242468 -0.842117,-1.946534 0.731676,-1.490961 0.731676,-3.658377 0,-0.510793 -0.05522,-1.629014 -0.04142,-1.049195 -0.04142,-1.629014 0,-0.207078 0.372741,-0.704065 0.331324,-0.40035 0.648844,-0.800701 z"
         id="path2" />
      <path
         style="text-align:center;text-anchor:middle"
         d="m 20.22254,35.944896 q -0.06903,0.386545 -0.248493,1.063 -0.676455,0.138052 -2.277858,0.66265 -0.828312,0.262299 -1.642819,0.524597 -0.08283,3.741209 -0.124247,5.107924 -0.110441,2.912897 -0.289909,4.735184 0,-1.173442 -0.635039,-3.368469 0,-0.138052 0.207078,-0.358935 0.207078,-0.220883 0.207078,-0.331325 0.220883,-3.382274 0.220883,-4.11395 0,-0.814506 -0.06903,-1.532377 -0.69026,0.110442 -1.394325,0.220884 -0.704065,0.193272 -1.311494,1.007779 -0.234689,0.31752 -0.372741,1.104416 -0.08283,0.66265 -0.165662,1.325299 0,-1.684234 0.01381,-1.366715 -0.04142,-0.897338 -0.289909,-1.684234 0.800702,-0.289909 2.78865,-0.800701 1.946534,-0.496988 2.912897,-0.855923 1.559988,-0.566013 2.471131,-1.339104 z m 2.429715,10.975133 q -0.124247,0.538403 -0.524597,1.559988 0.165662,-0.842117 0.262298,-1.173442 l 0.06903,-1.049195 -0.06903,-0.579818 q -0.02761,-0.248494 -0.262298,-0.262299 -0.05522,0 -0.220884,0.0138 -0.151857,0.0138 -0.262298,0.0138 -0.358936,0 -2.07078,0.869728 0,-2.236443 0.165662,-3.478911 -0.06903,0.08283 -0.06903,0.05522 v 0.0138 q 0,-0.06903 -0.05522,-0.0138 0.02761,0 0.01381,-0.05522 -0.04142,0.01381 -0.138052,0 -0.869727,-0.09664 -1.159636,1.463352 -0.06903,0.427961 -0.124247,1.104416 l -0.0138,0.414156 q -0.01381,0.179467 -0.02761,0.234688 l 0.124247,0.0138 -0.220883,-3.409884 q 0.276104,-0.09664 1.670429,-0.220883 0.179468,-0.524598 0.289909,-0.745481 0.165663,-0.414156 0.372741,-0.717871 0.08283,-0.02761 0.165662,-0.02761 0.566013,0 1.076806,1.684234 -1.063001,0.02761 -1.490962,0.455572 -0.138052,0.37274 -0.151857,0.980169 -0.01381,0.510793 -0.01381,1.021585 -0.02761,0.37274 -0.138052,0.800702 0.648844,-0.331325 1.490961,-0.897338 0.414156,-0.28991 1.214858,-0.814507 0.193273,0.524597 0.193273,1.477156 0,0.828312 -0.09664,1.270078 z M 20.954216,41.77069 q -0.165663,-0.303714 -0.469377,-0.455572 -0.276104,0.855923 -0.276104,1.159637 l 1.049195,-0.08283 q -0.09664,-0.220883 -0.303714,-0.621234 z m 4.83181,2.126001 q -0.02761,1.352909 -0.06903,2.540157 -0.05522,1.021584 -0.05522,1.063 -0.124246,-0.855922 -0.386545,-2.609183 -1.670429,1.435741 -2.250248,1.325299 0,-0.02761 -0.09664,-0.276104 -0.08283,-0.262298 -0.08283,-0.455571 0,-0.552208 0.71787,-3.741209 0.207078,-0.331325 0.869728,-0.469377 l 0.02761,2.056975 q -0.08283,-0.06903 -0.234688,-0.455572 -0.138052,-0.386546 -0.262299,-0.552208 -0.676455,1.905118 -0.676455,2.719624 0,0.09664 -0.02761,0.248494 -0.01381,0.110442 0,0.193273 0.02761,0.110441 0.124246,0.303714 0.455572,-0.276104 1.201053,-0.897338 0.607429,-0.496987 1.201052,-0.993974 z m 4.224392,5.038898 q -0.248493,-0.593624 -0.635039,-1.753261 -0.483182,-1.421935 -0.635039,-1.863702 -0.02761,-0.08283 0.193273,-0.220883 0.276104,-0.193273 0.34513,-0.289909 0.34513,-0.441766 0.34513,-1.366715 0,-0.786896 -0.248494,-1.780871 -2.029364,1.518572 -2.029364,4.362444 0,0.552208 0.08283,1.504766 0.08283,0.966364 0.08283,1.311494 v 0.842117 q -0.234688,-1.339104 -0.455572,-2.664403 -0.289909,-1.615208 -0.552208,-1.863702 0.276104,-0.289909 0.69026,-0.924948 0.34513,-0.800702 0.34513,-2.41591 0,-0.31752 -0.138052,-1.974144 -0.138052,-1.767065 -0.234688,-2.595377 -0.234688,0.635039 -0.469377,2.043169 -0.220883,1.325299 -0.276104,2.236442 0,-0.289909 -0.110441,-1.684234 -0.110442,-1.394325 -0.110442,-1.559987 0,-0.745481 0.386546,-1.076806 0.911143,-0.773091 1.201052,-1.145832 0,1.891313 0.151857,6.654107 1.063001,-1.421936 1.946533,-1.918923 -0.05522,0.427961 -0.05522,1.104416 0,0.289909 0.02761,1.490961 0.02761,0.938754 0,1.477157 0,0.207078 -0.08283,0.924948 -0.05522,0.593624 -0.05522,1.00778 0,1.007779 0.289909,2.139806 z"
         id="path3" />
    </g>
  </g>
</svg>
